<svg width="66" height="11" viewBox="0 0 66 11" fill="none" xmlns="http://www.w3.org/2000/svg">
<g clip-path="url(#clip0_1_478)">
<path d="M5.68926 0L3.95021 3.61194L0 4.19479L2.86158 7.04149L2.17754 11L5.68926 9.09502L9.20171 11L8.52271 7.04149L11.3793 4.19479L7.45095 3.61194L5.68926 0Z" fill="#FFB80F"/>
<path d="M19.3444 0L17.6054 3.61194L13.6552 4.19479L16.5167 7.04149L15.8327 11L19.3444 9.09502L22.8569 11L22.1779 7.04149L25.0345 4.19479L21.1061 3.61194L19.3444 0Z" fill="#FFB80F"/>
<path d="M32.9996 0L31.2605 3.61194L27.3103 4.19479L30.1719 7.04149L29.4878 11L32.9996 9.09502L36.512 11L35.833 7.04149L38.6896 4.19479L34.7612 3.61194L32.9996 0Z" fill="#FFB80F"/>
<path d="M46.6548 0L44.9158 3.61194L40.9656 4.19479L43.8271 7.04149L43.1431 11L46.6548 9.09502L50.1673 11L49.4883 7.04149L52.3449 4.19479L48.4165 3.61194L46.6548 0Z" fill="#FFB80F"/>
<path fill-rule="evenodd" clip-rule="evenodd" d="M60.6654 0.223529C60.5983 0.0862697 60.46 -0.000392342 60.3092 1.33562e-06C60.1579 0.000394982 60.0202 0.0877762 59.9536 0.225383L58.4282 3.38229L54.9607 3.89202C54.8113 3.91399 54.6871 4.02003 54.6403 4.1656C54.5935 4.31116 54.6322 4.47103 54.7402 4.57806L57.2522 7.06805L56.6523 10.5279C56.626 10.6795 56.6874 10.833 56.8102 10.9233C56.933 11.0137 57.0963 11.0251 57.23 10.9527L60.3098 9.28802L63.3908 10.9527C63.5245 11.025 63.6872 11.0137 63.8101 10.9234C63.933 10.8332 63.9944 10.6799 63.9683 10.5284L63.3726 7.06805L65.8805 4.57782C65.9887 4.47077 66.0273 4.31103 65.9807 4.16558C65.9335 4.02013 65.8094 3.91414 65.6604 3.89206L62.2119 3.38229L60.6654 0.223529ZM59.049 3.92714L60.3121 1.31239L61.5934 3.929C61.6514 4.0473 61.7624 4.12926 61.8915 4.14831L64.7529 4.57128L62.6682 6.64114C62.5749 6.73387 62.5322 6.8673 62.5549 6.99787L63.0465 9.85468L60.497 8.47682C60.3798 8.41379 60.2398 8.41379 60.1232 8.47688L57.5754 9.85397L58.0704 6.99837C58.0931 6.86752 58.051 6.73376 57.9571 6.64092L55.8694 4.57172L58.7491 4.14836C58.8789 4.12928 58.9909 4.0465 59.049 3.92714Z" fill="#FFB80F"/>
</g>
<defs>
<clipPath id="clip0_1_478">
<rect width="66" height="11" fill="white"/>
</clipPath>
</defs>
</svg>
