<svg width="24" height="24" viewBox="0 0 24 24" fill="none" xmlns="http://www.w3.org/2000/svg">
<path d="M11.9999 1.24999C9.03157 1.24999 6.34306 2.45405 4.39848 4.39859C3.40872 5.38836 2.6108 6.57088 2.06585 7.88492C1.38317 9.27784 0.999878 10.8441 0.999878 12.5C0.999878 18.2989 5.70089 23 11.4999 23C13.1557 23 14.7221 22.6166 16.115 21.934C17.429 21.389 18.6115 20.5912 19.6013 19.6014C21.5459 17.6568 22.7499 14.9683 22.7499 12C22.7499 9.03168 21.5459 6.34316 19.6013 4.39859C17.6567 2.45405 14.9682 1.24999 11.9999 1.24999Z" fill="#EBF5FF"/>
<path fill-rule="evenodd" clip-rule="evenodd" d="M17.5305 8.46967C17.8234 8.76257 17.8234 9.23743 17.5305 9.53033L11.5304 15.5303C11.2376 15.8232 10.7627 15.8232 10.4698 15.5303L7.46979 12.5303C7.1769 12.2375 7.1769 11.7626 7.46979 11.4697C7.76268 11.1768 8.23755 11.1768 8.53045 11.4697L11.0001 13.9393L16.4698 8.46967C16.7627 8.17678 17.2375 8.17678 17.5305 8.46967Z" fill="#0855A1"/>
</svg>
