<svg width="20" height="20" viewBox="0 0 20 20" fill="none" xmlns="http://www.w3.org/2000/svg">
<path fill-rule="evenodd" clip-rule="evenodd" d="M3.66549 3.99892C5.28597 2.46375 7.5264 1.51318 9.99999 1.51318C12.4735 1.51318 14.714 2.46375 16.3344 3.99892C17.9549 5.53411 18.9583 7.65663 18.9583 10C18.9583 12.3434 17.9549 14.4659 16.3344 16.0011C14.714 17.5362 12.4735 18.4869 9.99999 18.4869C7.5264 18.4869 5.28597 17.5362 3.66549 16.0011C2.04503 14.4659 1.04166 12.3434 1.04166 10C1.04166 7.65663 2.04503 5.53411 3.66549 3.99892ZM9.99999 2.69739C7.87125 2.69739 5.94501 3.51412 4.54937 4.83629C3.15375 6.15848 2.29166 7.98332 2.29166 10C2.29166 12.0168 3.15376 13.8416 4.54938 15.1637C5.94501 16.4859 7.87125 17.3027 9.99999 17.3027C12.1288 17.3027 14.055 16.4859 15.4505 15.1637C16.8462 13.8416 17.7083 12.0168 17.7083 10C17.7083 7.98332 16.8462 6.15847 15.4505 4.83629C14.055 3.51412 12.1288 2.69739 9.99999 2.69739Z" fill="#626E79"/>
<path fill-rule="evenodd" clip-rule="evenodd" d="M14.6085 7.21285C14.8527 7.44408 14.8527 7.81899 14.6085 8.05022L9.6086 12.787C9.36453 13.0183 8.96879 13.0183 8.72471 12.787L6.22471 10.4186C5.98064 10.1874 5.98064 9.81251 6.22471 9.58127C6.46879 9.35004 6.86453 9.35004 7.1086 9.58127L9.16666 11.531L13.7248 7.21285C13.9688 6.98162 14.3645 6.98162 14.6085 7.21285Z" fill="#626E79"/>
</svg>
