<svg width="20" height="20" viewBox="0 0 20 20" fill="none" xmlns="http://www.w3.org/2000/svg">
<path fill-rule="evenodd" clip-rule="evenodd" d="M3.9189 3.66546C5.47456 2.04501 7.62538 1.04163 10 1.04163C12.3747 1.04163 14.5255 2.04501 16.0811 3.66546C17.6367 5.28593 18.6 7.52638 18.6 9.99996C18.6 12.4735 17.6367 14.714 16.0811 16.3345C14.5255 17.9549 12.3747 18.9583 10 18.9583C7.62538 18.9583 5.47456 17.9549 3.9189 16.3345C2.36327 14.714 1.40002 12.4735 1.40002 9.99996C1.40002 7.52638 2.36327 5.28593 3.9189 3.66546ZM10 2.29163C7.95642 2.29163 6.10725 3.15373 4.76743 4.54934C3.42763 5.94499 2.60002 7.87121 2.60002 9.99996C2.60002 12.1287 3.42764 14.055 4.76743 15.4505C6.10725 16.8462 7.95642 17.7083 10 17.7083C12.0436 17.7083 13.8928 16.8462 15.2326 15.4505C16.5724 14.055 17.4 12.1287 17.4 9.99996C17.4 7.87121 16.5724 5.94498 15.2326 4.54934C13.8928 3.15373 12.0436 2.29163 10 2.29163Z" fill="#626E79"/>
<path fill-rule="evenodd" clip-rule="evenodd" d="M10 4.58337C10.5523 4.58337 11 5.04975 11 5.62504C11 6.20033 10.5523 6.66671 10 6.66671C9.44776 6.66671 9 6.20033 9 5.62504C9 5.04975 9.44776 4.58337 10 4.58337Z" fill="#626E79"/>
<path fill-rule="evenodd" clip-rule="evenodd" d="M8.79999 8.33325C8.79999 7.98807 9.06863 7.70825 9.39999 7.70825H10.2C10.5313 7.70825 10.8 7.98807 10.8 8.33325V14.1666C10.8 14.5118 10.5313 14.7916 10.2 14.7916C9.86863 14.7916 9.59999 14.5118 9.59999 14.1666V8.95827H9.39999C9.06863 8.95827 8.79999 8.67844 8.79999 8.33325Z" fill="#626E79"/>
<path fill-rule="evenodd" clip-rule="evenodd" d="M8.20007 14.1666C8.20007 13.8215 8.46871 13.5416 8.80007 13.5416H11.6001C11.9314 13.5416 12.2001 13.8215 12.2001 14.1666C12.2001 14.5118 11.9314 14.7916 11.6001 14.7916H8.80007C8.46871 14.7916 8.20007 14.5118 8.20007 14.1666Z" fill="#626E79"/>
</svg>
