<svg width="66" height="11" viewBox="0 0 66 11" fill="none" xmlns="http://www.w3.org/2000/svg">
<g clip-path="url(#clip0_1_211)">
<path d="M5.68926 0L3.95021 3.61194L0 4.19479L2.86158 7.04149L2.17754 11L5.68926 9.09502L9.20171 11L8.52271 7.04149L11.3793 4.19479L7.45095 3.61194L5.68926 0Z" fill="#FFB80F"/>
<path d="M19.3444 0L17.6054 3.61194L13.6552 4.19479L16.5167 7.04149L15.8327 11L19.3444 9.09502L22.8569 11L22.1779 7.04149L25.0345 4.19479L21.1061 3.61194L19.3444 0Z" fill="#FFB80F"/>
<path d="M32.9996 0L31.2605 3.61194L27.3103 4.19479L30.1719 7.04149L29.4878 11L32.9996 9.09502L36.512 11L35.833 7.04149L38.6896 4.19479L34.7612 3.61194L32.9996 0Z" fill="#FFB80F"/>
<path d="M46.6548 0L44.9158 3.61194L40.9656 4.19479L43.8271 7.04149L43.1431 11L46.6548 9.09502L50.1673 11L49.4883 7.04149L52.3449 4.19479L48.4165 3.61194L46.6548 0Z" fill="#FFB80F"/>
<path d="M60.3098 0L58.5711 3.61194L54.6207 4.19479L57.4821 7.04149L56.7983 11L60.3098 9.09502L63.8226 11L63.1433 7.04149L66 4.19479L62.0719 3.61194L60.3098 0Z" fill="#FFB80F"/>
</g>
<defs>
<clipPath id="clip0_1_211">
<rect width="66" height="11" fill="white"/>
</clipPath>
</defs>
</svg>
