<svg width="20" height="20" viewBox="0 0 20 20" fill="none" xmlns="http://www.w3.org/2000/svg">
<path fill-rule="evenodd" clip-rule="evenodd" d="M3.88981 1.77216C4.00126 1.57806 4.208 1.45837 4.43182 1.45837H15.5683C15.792 1.45837 15.9987 1.57806 16.1102 1.77216L19.292 7.31384C19.4234 7.54251 19.397 7.82899 19.2261 8.02987L10.4762 18.3215C10.3574 18.4613 10.1833 18.5418 10 18.5418C9.81667 18.5418 9.64259 18.4613 9.52384 18.3215L0.773841 8.02987C0.603042 7.82899 0.576697 7.54251 0.707994 7.31384L3.88981 1.77216ZM4.79366 2.70837L2.01088 7.55506L10 16.9518L17.9891 7.55506L15.2064 2.70837H4.79366Z" fill="white"/>
<path fill-rule="evenodd" clip-rule="evenodd" d="M4.22459 1.4937C4.55022 1.37918 4.90703 1.55032 5.02154 1.87595L10.0001 16.0327L14.9788 1.87595C15.0933 1.55032 15.45 1.37918 15.7756 1.4937C16.1013 1.60821 16.2724 1.96502 16.1579 2.29065L10.5897 18.124C10.5017 18.3742 10.2654 18.5416 10.0001 18.5416C9.73487 18.5416 9.49852 18.3742 9.41052 18.124L3.84233 2.29065C3.72782 1.96502 3.89895 1.60821 4.22459 1.4937Z" fill="white"/>
<path fill-rule="evenodd" clip-rule="evenodd" d="M0.625 7.625C0.625 7.27981 0.904822 7 1.25 7H18.75C19.0951 7 19.375 7.27981 19.375 7.625C19.375 7.97018 19.0951 8.25 18.75 8.25H1.25C0.904822 8.25 0.625 7.97018 0.625 7.625Z" fill="white"/>
<path fill-rule="evenodd" clip-rule="evenodd" d="M9.99991 1.45831C10.2121 1.45831 10.4098 1.56596 10.5249 1.74419L14.1045 7.28586C14.2917 7.57581 14.2085 7.96269 13.9186 8.14998C13.6286 8.33726 13.2417 8.25404 13.0545 7.96409L9.99991 3.2352L6.94536 7.96409C6.75807 8.25404 6.3712 8.33726 6.08125 8.14998C5.7913 7.96269 5.70807 7.57581 5.89536 7.28586L9.47491 1.74419C9.59004 1.56596 9.78772 1.45831 9.99991 1.45831Z" fill="white"/>
</svg>
