<svg width="10" height="10" viewBox="0 0 10 10" fill="none" xmlns="http://www.w3.org/2000/svg">
<g clip-path="url(#clip0_1_203)">
<path fill-rule="evenodd" clip-rule="evenodd" d="M2.07758 2.02094C2.86348 1.25887 3.95006 0.786987 5.14972 0.786987C6.34938 0.786987 7.43594 1.25887 8.22184 2.02094C9.00775 2.78304 9.49438 3.83669 9.49438 5C9.49438 6.1633 9.00775 7.21694 8.22184 7.97903C7.43594 8.74112 6.34938 9.213 5.14972 9.213C3.95006 9.213 2.86348 8.74112 2.07758 7.97903C1.29168 7.21694 0.805054 6.1633 0.805054 5C0.805054 3.83669 1.29168 2.78304 2.07758 2.02094ZM5.14972 1.37485C4.11731 1.37485 3.18313 1.78028 2.50624 2.43663C1.82939 3.093 1.41128 3.99888 1.41128 5C1.41128 6.00112 1.82939 6.907 2.50625 7.56336C3.18313 8.21969 4.11731 8.62515 5.14972 8.62515C6.18213 8.62515 7.11631 8.21969 7.79319 7.56336C8.47003 6.907 8.88816 6.00112 8.88816 5C8.88816 3.99888 8.47003 3.09297 7.79319 2.43663C7.11631 1.78028 6.18213 1.37485 5.14972 1.37485Z" fill="#BABEC3"/>
<path fill-rule="evenodd" clip-rule="evenodd" d="M5.14996 2.45264C5.42896 2.45264 5.65515 2.67197 5.65515 2.94252C5.65515 3.21308 5.42896 3.43241 5.14996 3.43241C4.87096 3.43241 4.64478 3.21308 4.64478 2.94252C4.64478 2.67197 4.87096 2.45264 5.14996 2.45264Z" fill="#BABEC3"/>
<path fill-rule="evenodd" clip-rule="evenodd" d="M4.54346 4.21615C4.54346 4.05382 4.67914 3.92224 4.84655 3.92224H5.25071C5.41811 3.92224 5.55383 4.05382 5.55383 4.21615V6.95951C5.55383 7.12185 5.41811 7.25345 5.25071 7.25345C5.0833 7.25345 4.94761 7.12185 4.94761 6.95951V4.51009H4.84655C4.67914 4.51009 4.54346 4.37848 4.54346 4.21615Z" fill="#BABEC3"/>
<path fill-rule="evenodd" clip-rule="evenodd" d="M4.24036 6.95959C4.24036 6.79726 4.37608 6.66565 4.54348 6.66565H5.95801C6.12542 6.66565 6.26114 6.79726 6.26114 6.95959C6.26114 7.12192 6.12542 7.2535 5.95801 7.2535H4.54348C4.37608 7.2535 4.24036 7.12192 4.24036 6.95959Z" fill="#BABEC3"/>
</g>
<defs>
<clipPath id="clip0_1_203">
<rect width="10" height="10" fill="white"/>
</clipPath>
</defs>
</svg>
