<svg width="10" height="10" viewBox="0 0 10 10" fill="none" xmlns="http://www.w3.org/2000/svg">
<path fill-rule="evenodd" clip-rule="evenodd" d="M5.14996 2.45265C5.42896 2.45265 5.65515 2.67198 5.65515 2.94254C5.65515 3.21309 5.42896 3.43242 5.14996 3.43242C4.87096 3.43242 4.64478 3.21309 4.64478 2.94254C4.64478 2.67198 4.87096 2.45265 5.14996 2.45265Z" fill="#BABEC3"/>
<path fill-rule="evenodd" clip-rule="evenodd" d="M4.54346 4.21615C4.54346 4.05382 4.67914 3.92224 4.84655 3.92224H5.25071C5.41811 3.92224 5.55383 4.05382 5.55383 4.21615V6.95951C5.55383 7.12185 5.41811 7.25345 5.25071 7.25345C5.0833 7.25345 4.94761 7.12185 4.94761 6.95951V4.51009H4.84655C4.67914 4.51009 4.54346 4.37848 4.54346 4.21615Z" fill="#BABEC3"/>
<path fill-rule="evenodd" clip-rule="evenodd" d="M4.24036 6.95957C4.24036 6.79724 4.37608 6.66563 4.54348 6.66563H5.95801C6.12542 6.66563 6.26114 6.79724 6.26114 6.95957C6.26114 7.12191 6.12542 7.25348 5.95801 7.25348H4.54348C4.37608 7.25348 4.24036 7.12191 4.24036 6.95957Z" fill="#BABEC3"/>
</svg>
